<svg version="1.1" id="Layer_1" xmlns="http://www.w3.org/2000/svg" xmlns:xlink="http://www.w3.org/1999/xlink" x="0px" y="0px"
	 width="100%" viewBox="0 0 988 350" enable-background="new 0 0 988 350" xml:space="preserve">
<path fill="#FFFFFF" opacity="1.000000" stroke="none" 
	d="
M699.000000,351.000000 
	C466.000031,351.000000 233.500076,351.000000 1.000094,351.000000 
	C1.000062,234.333389 1.000062,117.666794 1.000031,1.000141 
	C330.333221,1.000094 659.666443,1.000094 988.999756,1.000047 
	C988.999817,117.666527 988.999817,234.333054 988.999878,350.999786 
	C892.500000,351.000000 796.000000,351.000000 699.000000,351.000000 
M749.849060,233.479889 
	C749.849060,236.902222 749.849060,240.324539 749.849060,243.746765 
	C761.496338,243.746765 772.419006,243.746765 784.028503,243.746765 
	C784.028503,210.914032 784.028503,178.331039 784.028503,144.389801 
	C785.817566,147.216125 786.802368,148.745117 787.761169,150.290237 
	C806.362854,180.267365 824.942688,210.258087 843.615295,240.190979 
	C844.564148,241.712173 846.277954,243.790710 847.683716,243.828613 
	C858.801025,244.128326 869.929993,243.995285 881.330933,243.995285 
	C881.330933,195.524872 881.330933,147.476654 881.330933,99.394196 
	C870.016724,99.394196 858.984070,99.394196 847.416138,99.394196 
	C847.416138,126.779419 847.416138,153.769730 847.416138,182.090317 
	C845.612061,179.434631 844.564819,177.970963 843.596985,176.456497 
	C830.602295,156.122406 817.638855,135.768280 804.618896,115.450409 
	C801.128662,110.003754 798.602661,102.589088 793.578430,99.854675 
	C788.540771,97.112877 780.935913,99.044617 774.455750,99.007668 
	C766.354797,98.961464 758.253418,98.996559 749.848999,98.996559 
	C749.848999,143.917953 749.848999,188.200989 749.849060,233.479889 
M715.846497,221.650085 
	C705.621277,208.585724 695.396057,195.521362 685.260620,182.571732 
	C690.597351,178.676727 695.943481,175.511963 700.408386,171.392197 
	C723.123047,150.433563 716.837280,114.436920 688.514526,103.527908 
	C683.181091,101.473633 677.239685,100.179497 671.540588,100.034172 
	C646.409973,99.393318 621.265320,99.298798 596.125671,99.023964 
	C595.501587,99.017143 594.875244,99.214043 594.151978,99.331902 
	C594.151978,147.561371 594.151978,195.586945 594.151978,243.753281 
	C606.364624,243.753281 618.274902,243.753281 630.768677,243.753281 
	C630.768677,226.138229 630.768677,208.761078 630.768677,191.002121 
	C635.478821,191.002121 639.626404,191.204987 643.743652,190.938324 
	C647.074341,190.722610 649.146484,191.840149 651.160217,194.586227 
	C662.382751,209.889847 673.895142,224.980713 685.156189,240.256561 
	C687.107727,242.903976 689.058105,244.160645 692.501526,244.093811 
	C704.655518,243.857880 716.816833,244.012436 728.975342,243.985504 
	C730.165161,243.982864 731.354431,243.750290 733.001282,243.576065 
	C727.150024,236.108246 721.709351,229.164474 715.846497,221.650085 
M516.619446,243.185928 
	C539.785706,236.063034 554.525574,220.662842 561.315369,197.533691 
	C565.026184,184.893066 565.645813,171.962662 564.029846,158.972488 
	C560.640747,131.728424 547.408875,111.501862 521.181641,101.347878 
	C506.949158,95.837692 491.959351,95.018417 476.918640,96.990150 
	C449.139130,100.631851 429.341766,114.768036 419.836212,141.734833 
	C415.047668,155.319763 414.781433,169.374573 415.855804,183.620621 
	C418.027405,212.415283 437.759399,236.769623 465.529663,243.839081 
	C482.273132,248.101456 499.107941,248.009094 516.619446,243.185928 
M256.852203,124.500000 
	C256.852203,164.231659 256.852203,203.963318 256.852203,243.668762 
	C269.610138,243.668762 281.672058,243.668762 294.243317,243.668762 
	C294.243317,222.288773 294.243317,201.236374 294.243317,180.372009 
	C312.990967,180.372009 331.221008,180.372009 349.846680,180.372009 
	C349.846680,201.659195 349.846680,222.578705 349.846680,243.693542 
	C362.299316,243.693542 374.347534,243.693542 386.462769,243.693542 
	C386.462769,195.353119 386.462769,147.320831 386.462769,99.405594 
	C374.056488,99.405594 362.006714,99.405594 349.564972,99.405594 
	C349.564972,117.074348 349.564972,134.339371 349.564972,151.745132 
	C330.922516,151.745132 312.684326,151.745132 293.929047,151.745132 
	C293.929047,134.111526 293.929047,116.723488 293.929047,99.301147 
	C281.340698,99.301147 269.272552,99.301147 256.852112,99.301147 
	C256.852112,107.566231 256.852112,115.533112 256.852203,124.500000 
M103.207428,173.382828 
	C103.778862,179.173706 103.913704,185.047714 104.997490,190.741058 
	C109.628723,215.069916 122.545944,233.122101 146.399796,241.534698 
	C173.754517,251.181931 200.455353,247.761932 226.260895,235.347488 
	C227.241882,234.875565 228.424377,233.507706 228.438278,232.541855 
	C228.593124,221.791306 228.535919,211.037720 228.535919,198.812180 
	C225.687592,200.456421 223.810913,201.254150 222.271378,202.476486 
	C214.409973,208.718246 206.283264,214.409134 196.466003,217.275803 
	C174.304352,223.747040 153.416794,214.465057 145.517639,193.985291 
	C140.453415,180.855484 140.595413,167.160370 144.129471,153.707733 
	C151.015350,127.496124 175.299530,119.065834 195.962524,126.151115 
	C205.177780,129.311020 213.264847,135.747147 221.892105,140.646805 
	C223.745544,141.699417 225.720413,142.538254 228.559280,143.924911 
	C228.559280,132.488846 228.425385,122.366814 228.637985,112.252068 
	C228.704834,109.071564 227.540970,107.602631 224.751617,106.292419 
	C205.523529,97.260643 185.302490,94.310333 164.416580,97.103775 
	C144.872223,99.717766 128.165207,107.951149 116.565895,124.664955 
	C106.592651,139.035706 103.336266,155.308426 103.207428,173.382828 
z"/>
<path fill="#02BCFB" opacity="1.000000" stroke="none" 
	d="
M749.848999,232.981949 
	C749.848999,188.200989 749.848999,143.917953 749.848999,98.996559 
	C758.253418,98.996559 766.354797,98.961464 774.455750,99.007668 
	C780.935913,99.044617 788.540771,97.112877 793.578430,99.854675 
	C798.602661,102.589088 801.128662,110.003754 804.618896,115.450409 
	C817.638855,135.768280 830.602295,156.122406 843.596985,176.456497 
	C844.564819,177.970963 845.612061,179.434631 847.416138,182.090317 
	C847.416138,153.769730 847.416138,126.779419 847.416138,99.394196 
	C858.984070,99.394196 870.016724,99.394196 881.330933,99.394196 
	C881.330933,147.476654 881.330933,195.524872 881.330933,243.995285 
	C869.929993,243.995285 858.801025,244.128326 847.683716,243.828613 
	C846.277954,243.790710 844.564148,241.712173 843.615295,240.190979 
	C824.942688,210.258087 806.362854,180.267365 787.761169,150.290237 
	C786.802368,148.745117 785.817566,147.216125 784.028503,144.389801 
	C784.028503,178.331039 784.028503,210.914032 784.028503,243.746765 
	C772.419006,243.746765 761.496338,243.746765 749.849060,243.746765 
	C749.849060,240.324539 749.849060,236.902222 749.848999,232.981949 
z"/>
<path fill="#02BCFB" opacity="1.000000" stroke="none" 
	d="
M716.057617,221.935394 
	C721.709351,229.164474 727.150024,236.108246 733.001282,243.576065 
	C731.354431,243.750290 730.165161,243.982864 728.975342,243.985504 
	C716.816833,244.012436 704.655518,243.857880 692.501526,244.093811 
	C689.058105,244.160645 687.107727,242.903976 685.156189,240.256561 
	C673.895142,224.980713 662.382751,209.889847 651.160217,194.586227 
	C649.146484,191.840149 647.074341,190.722610 643.743652,190.938324 
	C639.626404,191.204987 635.478821,191.002121 630.768677,191.002121 
	C630.768677,208.761078 630.768677,226.138229 630.768677,243.753281 
	C618.274902,243.753281 606.364624,243.753281 594.151978,243.753281 
	C594.151978,195.586945 594.151978,147.561371 594.151978,99.331902 
	C594.875244,99.214043 595.501587,99.017143 596.125671,99.023964 
	C621.265320,99.298798 646.409973,99.393318 671.540588,100.034172 
	C677.239685,100.179497 683.181091,101.473633 688.514526,103.527908 
	C716.837280,114.436920 723.123047,150.433563 700.408386,171.392197 
	C695.943481,175.511963 690.597351,178.676727 685.260620,182.571732 
	C695.396057,195.521362 705.621277,208.585724 716.057617,221.935394 
M630.711121,142.500977 
	C630.711121,149.896561 630.711121,157.292145 630.711121,165.523315 
	C640.872009,164.940857 650.366882,165.047302 659.647278,163.688660 
	C669.708984,162.215668 675.268250,154.041626 675.155579,143.081818 
	C675.051636,132.971649 670.602417,127.058990 659.713806,125.788994 
	C650.278748,124.688530 640.613586,125.560204 630.710876,125.560204 
	C630.710876,130.914703 630.710876,136.208054 630.711121,142.500977 
z"/>
<path fill="#02BCFB" opacity="1.000000" stroke="none" 
	d="
M516.229431,243.295746 
	C499.107941,248.009094 482.273132,248.101456 465.529663,243.839081 
	C437.759399,236.769623 418.027405,212.415283 415.855804,183.620621 
	C414.781433,169.374573 415.047668,155.319763 419.836212,141.734833 
	C429.341766,114.768036 449.139130,100.631851 476.918640,96.990150 
	C491.959351,95.018417 506.949158,95.837692 521.181641,101.347878 
	C547.408875,111.501862 560.640747,131.728424 564.029846,158.972488 
	C565.645813,171.962662 565.026184,184.893066 561.315369,197.533691 
	C554.525574,220.662842 539.785706,236.063034 516.229431,243.295746 
M505.809113,216.440125 
	C512.806641,212.878372 517.808167,207.230698 520.667908,200.157379 
	C528.427917,180.963547 528.666931,161.468384 520.366882,142.445358 
	C514.247498,128.420319 502.746613,122.122490 487.466156,123.047852 
	C473.573029,123.889214 464.036896,131.155014 458.979858,143.852112 
	C452.072388,161.195190 451.733215,178.998123 457.941528,196.545105 
	C465.304077,217.354385 484.727386,225.424149 505.809113,216.440125 
z"/>
<path fill="#01BCFB" opacity="1.000000" stroke="none" 
	d="
M256.852173,124.000000 
	C256.852112,115.533112 256.852112,107.566231 256.852112,99.301147 
	C269.272552,99.301147 281.340698,99.301147 293.929047,99.301147 
	C293.929047,116.723488 293.929047,134.111526 293.929047,151.745132 
	C312.684326,151.745132 330.922516,151.745132 349.564972,151.745132 
	C349.564972,134.339371 349.564972,117.074348 349.564972,99.405594 
	C362.006714,99.405594 374.056488,99.405594 386.462769,99.405594 
	C386.462769,147.320831 386.462769,195.353119 386.462769,243.693542 
	C374.347534,243.693542 362.299316,243.693542 349.846680,243.693542 
	C349.846680,222.578705 349.846680,201.659195 349.846680,180.372009 
	C331.221008,180.372009 312.990967,180.372009 294.243317,180.372009 
	C294.243317,201.236374 294.243317,222.288773 294.243317,243.668762 
	C281.672058,243.668762 269.610138,243.668762 256.852203,243.668762 
	C256.852203,203.963318 256.852203,164.231659 256.852173,124.000000 
z"/>
<path fill="#02BCFB" opacity="1.000000" stroke="none" 
	d="
M103.197128,172.911911 
	C103.336266,155.308426 106.592651,139.035706 116.565895,124.664955 
	C128.165207,107.951149 144.872223,99.717766 164.416580,97.103775 
	C185.302490,94.310333 205.523529,97.260643 224.751617,106.292419 
	C227.540970,107.602631 228.704834,109.071564 228.637985,112.252068 
	C228.425385,122.366814 228.559280,132.488846 228.559280,143.924911 
	C225.720413,142.538254 223.745544,141.699417 221.892105,140.646805 
	C213.264847,135.747147 205.177780,129.311020 195.962524,126.151115 
	C175.299530,119.065834 151.015350,127.496124 144.129471,153.707733 
	C140.595413,167.160370 140.453415,180.855484 145.517639,193.985291 
	C153.416794,214.465057 174.304352,223.747040 196.466003,217.275803 
	C206.283264,214.409134 214.409973,208.718246 222.271378,202.476486 
	C223.810913,201.254150 225.687592,200.456421 228.535919,198.812180 
	C228.535919,211.037720 228.593124,221.791306 228.438278,232.541855 
	C228.424377,233.507706 227.241882,234.875565 226.260895,235.347488 
	C200.455353,247.761932 173.754517,251.181931 146.399796,241.534698 
	C122.545944,233.122101 109.628723,215.069916 104.997490,190.741058 
	C103.913704,185.047714 103.778862,179.173706 103.197128,172.911911 
z"/>
<path fill="#FDFEFF" opacity="1.000000" stroke="none" 
	d="
M630.710999,142.001190 
	C630.710876,136.208054 630.710876,130.914703 630.710876,125.560204 
	C640.613586,125.560204 650.278748,124.688530 659.713806,125.788994 
	C670.602417,127.058990 675.051636,132.971649 675.155579,143.081818 
	C675.268250,154.041626 669.708984,162.215668 659.647278,163.688660 
	C650.366882,165.047302 640.872009,164.940857 630.711121,165.523315 
	C630.711121,157.292145 630.711121,149.896561 630.710999,142.001190 
z"/>
<path fill="#FDFEFF" opacity="1.000000" stroke="none" 
	d="
M505.479431,216.624634 
	C484.727386,225.424149 465.304077,217.354385 457.941528,196.545105 
	C451.733215,178.998123 452.072388,161.195190 458.979858,143.852112 
	C464.036896,131.155014 473.573029,123.889214 487.466156,123.047852 
	C502.746613,122.122490 514.247498,128.420319 520.366882,142.445358 
	C528.666931,161.468384 528.427917,180.963547 520.667908,200.157379 
	C517.808167,207.230698 512.806641,212.878372 505.479431,216.624634 
z"/>
</svg>